<svg width="410" height="161" viewBox="0 0 410 161" fill="none" xmlns="http://www.w3.org/2000/svg">
<path d="M67.0548 111C29.3748 111 4.17484 92.64 4.17484 65.04C4.17484 37.44 29.3748 19.08 67.0548 19.08C104.855 19.08 130.055 37.44 130.055 65.04C130.055 92.64 104.855 111 67.0548 111ZM67.0548 88.92C85.8948 88.92 98.7348 79.32 98.7348 65.04C98.7348 50.76 85.8948 41.16 67.0548 41.16C48.2148 41.16 35.4948 50.76 35.4948 65.04C35.4948 79.32 48.2148 88.92 67.0548 88.92ZM233.886 110.4C220.926 110.4 214.446 102.96 209.526 95.88L204.126 86.88C200.526 81.84 195.246 79.44 189.606 79.44H171.246V108H139.926V22.08H212.166C235.206 22.08 248.406 32.04 248.406 49.32C248.406 62.16 239.286 71.16 223.566 74.16V74.28C226.446 75.36 229.086 77.64 231.126 80.76L237.246 90C238.806 92.16 240.846 93.6 244.206 93.6C246.246 93.6 249.126 92.52 250.566 90.84L255.846 103.44C251.166 107.52 241.806 110.4 233.886 110.4ZM171.246 61.8H202.806C211.806 61.8 217.086 57.84 217.086 51.24C217.086 44.52 211.806 40.56 202.806 40.56H171.246V61.8ZM261.801 108V22.08H292.881V108H261.801ZM355.566 110.52C334.926 110.52 312.846 104.4 301.326 95.52L312.126 76.92C322.086 84.84 340.686 90.6 357.126 90.6C369.246 90.6 376.926 87.72 376.926 83.28C376.926 79.56 371.406 77.28 358.326 75.84L342.486 74.04C315.366 71.16 303.726 63.6 303.726 48.36C303.726 29.88 324.606 19.44 355.206 19.44C373.326 19.44 390.366 23.76 400.926 30.6L392.166 48.6C382.806 42.36 368.646 38.4 355.446 38.52C343.206 38.64 334.206 41.52 334.086 46.08C334.086 49.32 338.886 51.36 349.926 52.44L365.886 54.12C394.926 57.12 407.406 65.04 407.406 80.64C407.526 98.4 387.126 110.52 355.566 110.52Z" fill="url(#paint0_linear_153_153)"/>
<path d="M260.664 133.184C260.781 131.988 261.051 130.852 261.473 129.773C261.918 128.695 262.422 127.77 262.984 126.996C263.57 126.223 264.156 125.625 264.742 125.203C265.352 124.781 265.879 124.652 266.324 124.816C266.441 124.746 266.535 124.688 266.605 124.641C266.699 124.57 266.77 124.512 266.816 124.465C266.887 124.395 266.957 124.348 267.027 124.324C267.121 124.277 267.25 124.254 267.414 124.254C267.742 124.254 268.035 124.359 268.293 124.57C268.551 124.781 268.773 125.039 268.961 125.344C269.172 125.648 269.324 125.977 269.418 126.328C269.535 126.656 269.594 126.961 269.594 127.242C269.594 127.547 269.477 127.758 269.242 127.875C269.008 127.992 268.738 128.051 268.434 128.051C268.246 128.051 268.082 128.016 267.941 127.945C267.801 127.852 267.672 127.746 267.555 127.629C267.461 127.512 267.355 127.395 267.238 127.277C267.121 127.16 266.969 127.078 266.781 127.031H266.746H266.641C266.617 127.055 266.559 127.113 266.465 127.207C266.395 127.277 266.348 127.336 266.324 127.383C265.832 127.969 265.375 128.496 264.953 128.965C264.531 129.41 264.156 129.867 263.828 130.336C263.523 130.805 263.277 131.309 263.09 131.848C262.926 132.387 262.844 133.031 262.844 133.781C262.844 133.852 262.844 133.957 262.844 134.098C262.844 134.238 262.844 134.379 262.844 134.52C262.867 134.66 262.879 134.801 262.879 134.941C262.879 135.082 262.879 135.188 262.879 135.258C262.926 135.492 263.055 135.668 263.266 135.785C263.5 135.902 263.711 136.02 263.898 136.137C263.969 136.137 264.145 136.148 264.426 136.172C264.707 136.172 264.871 136.172 264.918 136.172C265.762 136.172 266.758 136.043 267.906 135.785C269.055 135.504 270.203 135.141 271.352 134.695C272.523 134.25 273.625 133.723 274.656 133.113C275.688 132.48 276.508 131.824 277.117 131.145C277.258 130.957 277.375 130.699 277.469 130.371C277.586 130.043 277.703 129.727 277.82 129.422C277.961 129.094 278.113 128.812 278.277 128.578C278.441 128.344 278.688 128.227 279.016 128.227C279.32 128.227 279.508 128.355 279.578 128.613C279.672 128.848 279.719 129.082 279.719 129.316C279.719 130.066 279.531 130.746 279.156 131.355C278.805 131.965 278.359 132.516 277.82 133.008C277.281 133.5 276.684 133.934 276.027 134.309C275.395 134.684 274.785 135 274.199 135.258C274.035 135.305 273.672 135.434 273.109 135.645C272.57 135.855 271.984 136.078 271.352 136.312C270.719 136.547 270.098 136.781 269.488 137.016C268.902 137.227 268.469 137.391 268.188 137.508C267.812 137.625 267.496 137.719 267.238 137.789C266.98 137.836 266.746 137.883 266.535 137.93C266.324 137.977 266.102 138 265.867 138C265.656 138.023 265.398 138.035 265.094 138.035C264.25 138.035 263.547 137.93 262.984 137.719C262.445 137.508 262.012 137.203 261.684 136.805C261.355 136.383 261.109 135.879 260.945 135.293C260.805 134.684 260.711 133.98 260.664 133.184ZM278.875 135.258C278.875 135.234 278.887 135.152 278.91 135.012C278.934 134.871 278.957 134.73 278.98 134.59C279.004 134.426 279.027 134.285 279.051 134.168C279.074 134.027 279.086 133.934 279.086 133.887V133.746V133.535L279.578 131.32C279.977 130.477 280.387 129.668 280.809 128.895C281.254 128.121 281.758 127.441 282.32 126.855C282.883 126.27 283.527 125.801 284.254 125.449C285.004 125.098 285.906 124.922 286.961 124.922C287.172 124.922 287.43 124.992 287.734 125.133C288.062 125.25 288.379 125.402 288.684 125.59C289.012 125.777 289.305 125.977 289.562 126.188C289.844 126.375 290.055 126.551 290.195 126.715C290.922 126.598 291.449 126.539 291.777 126.539C292.105 126.516 292.387 126.504 292.621 126.504C292.855 126.48 293.102 126.434 293.359 126.363C293.641 126.293 294.062 126.141 294.625 125.906C295.023 125.789 295.41 125.73 295.785 125.73C295.949 125.73 296.102 125.801 296.242 125.941C296.406 126.082 296.488 126.246 296.488 126.434C296.488 126.668 296.406 126.879 296.242 127.066C296.078 127.254 295.879 127.371 295.645 127.418L291.25 128.402L290.863 128.578C290.84 129.844 290.559 131.051 290.02 132.199C289.48 133.348 288.766 134.355 287.875 135.223C286.984 136.09 285.953 136.781 284.781 137.297C283.609 137.789 282.391 138.035 281.125 138.035C281.031 138.035 280.879 138.023 280.668 138C280.457 138 280.316 138 280.246 138C279.73 137.789 279.367 137.402 279.156 136.84C278.969 136.277 278.875 135.75 278.875 135.258ZM281.125 135.961C281.148 136.078 281.242 136.137 281.406 136.137C281.57 136.137 281.688 136.137 281.758 136.137C282.602 136.137 283.469 135.926 284.359 135.504C285.25 135.059 286.047 134.496 286.75 133.816C287.477 133.113 288.062 132.328 288.508 131.461C288.977 130.57 289.211 129.68 289.211 128.789C288.461 128.789 287.711 128.73 286.961 128.613C286.211 128.473 285.484 128.402 284.781 128.402H284.746L281.828 131.496C281.664 131.66 281.535 131.883 281.441 132.164C281.348 132.445 281.277 132.75 281.23 133.078C281.184 133.406 281.148 133.734 281.125 134.062C281.102 134.391 281.09 134.684 281.09 134.941C281.09 135.012 281.09 135.176 281.09 135.434C281.09 135.691 281.102 135.867 281.125 135.961ZM297.332 133.043C297.145 133.137 296.945 133.195 296.734 133.219C296.523 133.219 296.312 133.219 296.102 133.219C295.891 133.219 295.68 133.23 295.469 133.254C295.258 133.254 295.047 133.301 294.836 133.395C294.438 133.441 294.18 133.418 294.062 133.324C293.945 133.207 293.91 133.055 293.957 132.867C294.004 132.68 294.133 132.469 294.344 132.234C294.555 132 294.801 131.801 295.082 131.637C295.34 131.473 295.621 131.355 295.926 131.285C296.254 131.215 296.547 131.227 296.805 131.32C296.688 130.898 296.699 130.535 296.84 130.23C296.98 129.926 297.262 129.773 297.684 129.773C297.895 129.773 298.082 129.797 298.246 129.844C298.434 129.867 298.574 129.961 298.668 130.125C299.02 129.914 299.488 129.562 300.074 129.07C300.66 128.555 301.258 128.039 301.867 127.523C302.5 126.984 303.074 126.516 303.59 126.117C304.105 125.695 304.457 125.484 304.645 125.484C304.715 125.484 304.809 125.496 304.926 125.52C305.043 125.52 305.16 125.543 305.277 125.59C305.418 125.637 305.523 125.695 305.594 125.766C305.688 125.812 305.734 125.895 305.734 126.012V127.523C305.57 128.18 305.406 128.801 305.242 129.387C305.102 129.949 304.973 130.512 304.855 131.074C304.762 131.613 304.691 132.164 304.645 132.727C304.598 133.289 304.574 133.887 304.574 134.52C304.949 134.52 305.395 134.438 305.91 134.273C306.449 134.109 306.988 133.91 307.527 133.676C308.066 133.441 308.57 133.207 309.039 132.973C309.508 132.715 309.883 132.504 310.164 132.34C310.211 132.316 310.316 132.234 310.48 132.094C310.645 131.953 310.82 131.812 311.008 131.672C311.195 131.508 311.371 131.367 311.535 131.25C311.723 131.109 311.84 131.016 311.887 130.969C311.934 130.922 312.051 130.863 312.238 130.793C312.426 130.699 312.531 130.641 312.555 130.617C312.648 130.594 312.73 130.629 312.801 130.723C312.895 130.793 312.977 130.887 313.047 131.004C313.117 131.098 313.164 131.203 313.188 131.32C313.234 131.414 313.258 131.473 313.258 131.496C313.258 131.73 313.164 131.965 312.977 132.199C312.789 132.434 312.566 132.656 312.309 132.867C312.051 133.055 311.781 133.242 311.5 133.43C311.242 133.594 311.043 133.746 310.902 133.887C310.715 133.98 310.387 134.133 309.918 134.344C309.473 134.555 308.992 134.777 308.477 135.012C307.961 135.246 307.469 135.469 307 135.68C306.555 135.891 306.238 136.043 306.051 136.137C306.004 136.16 305.898 136.195 305.734 136.242C305.57 136.266 305.395 136.312 305.207 136.383C305.02 136.453 304.832 136.512 304.645 136.559C304.48 136.582 304.375 136.605 304.328 136.629C304.117 136.699 303.953 136.816 303.836 136.98C303.742 137.145 303.637 137.309 303.52 137.473C303.426 137.637 303.297 137.777 303.133 137.895C302.992 138.012 302.758 138.047 302.43 138C302.406 137.977 302.301 137.93 302.113 137.859C301.949 137.766 301.844 137.695 301.797 137.648C301.234 137.25 300.754 136.875 300.355 136.523C299.957 136.172 299.594 135.832 299.266 135.504C298.938 135.152 298.621 134.777 298.316 134.379C298.035 133.98 297.707 133.535 297.332 133.043ZM299.547 131.637C299.711 131.988 299.863 132.328 300.004 132.656C300.168 132.984 300.355 133.301 300.566 133.605C300.777 133.887 301.012 134.133 301.27 134.344C301.551 134.555 301.891 134.684 302.289 134.73C302.336 134.379 302.395 133.957 302.465 133.465C302.535 132.973 302.617 132.457 302.711 131.918C302.805 131.379 302.91 130.852 303.027 130.336C303.168 129.797 303.32 129.328 303.484 128.93H303.133C302.758 129.188 302.406 129.445 302.078 129.703C301.773 129.938 301.469 130.172 301.164 130.406C300.859 130.617 300.613 130.805 300.426 130.969C300.402 130.992 300.367 131.027 300.32 131.074C300.273 131.121 300.238 131.145 300.215 131.145C300.191 131.191 300.086 131.273 299.898 131.391C299.711 131.508 299.594 131.59 299.547 131.637ZM303.484 128.402C303.414 128.402 303.379 128.461 303.379 128.578C303.379 128.672 303.414 128.719 303.484 128.719C303.578 128.719 303.625 128.672 303.625 128.578C303.625 128.461 303.578 128.402 303.484 128.402ZM312.344 137.156C312.414 136.57 312.508 136.02 312.625 135.504C312.742 134.965 312.871 134.438 313.012 133.922C313.152 133.406 313.305 132.879 313.469 132.34C313.656 131.777 313.855 131.145 314.066 130.441V130.266C313.129 130.805 312.461 131.074 312.062 131.074C311.688 131.074 311.5 130.934 311.5 130.652C311.477 130.371 311.594 129.996 311.852 129.527C312.133 129.059 312.461 128.625 312.836 128.227C313.234 127.828 313.633 127.512 314.031 127.277C314.453 127.043 314.781 127.008 315.016 127.172C315.297 127.172 315.52 127.219 315.684 127.312C315.871 127.406 316.07 127.547 316.281 127.734C316.82 127.312 317.324 126.973 317.793 126.715C318.262 126.457 318.824 126.328 319.48 126.328C320.512 126.328 321.285 126.562 321.801 127.031C322.34 127.5 322.727 128.25 322.961 129.281C323.359 128.883 323.723 128.52 324.051 128.191C324.379 127.84 324.73 127.547 325.105 127.312C325.504 127.055 325.926 126.867 326.371 126.75C326.816 126.609 327.32 126.539 327.883 126.539C328.352 126.539 328.809 126.715 329.254 127.066C329.699 127.418 330.016 127.805 330.203 128.227C330.203 128.32 330.203 128.531 330.203 128.859C330.203 129.188 330.203 129.41 330.203 129.527C330.203 130.324 330.109 131.098 329.922 131.848C329.734 132.574 329.641 133.324 329.641 134.098C329.641 134.426 329.676 134.766 329.746 135.117C329.84 135.445 330.098 135.609 330.52 135.609C331.082 135.609 331.586 135.492 332.031 135.258C332.5 135.023 332.922 134.742 333.297 134.414C333.695 134.062 334.047 133.688 334.352 133.289C334.68 132.891 334.973 132.527 335.23 132.199C335.512 131.848 335.77 131.555 336.004 131.32C336.238 131.086 336.473 130.969 336.707 130.969C336.871 130.969 337.047 131.039 337.234 131.18C337.445 131.297 337.551 131.449 337.551 131.637C337.551 131.66 337.539 131.695 337.516 131.742C337.516 131.789 337.516 131.824 337.516 131.848C337.281 132.574 336.941 133.266 336.496 133.922C336.051 134.578 335.535 135.164 334.949 135.68C334.363 136.172 333.707 136.57 332.98 136.875C332.277 137.156 331.527 137.297 330.73 137.297C329.98 137.297 329.348 137.203 328.832 137.016C328.316 136.805 327.918 136.336 327.637 135.609C327.637 135.539 327.625 135.387 327.602 135.152C327.602 134.895 327.602 134.742 327.602 134.695C327.602 133.805 327.684 132.949 327.848 132.129C328.035 131.309 328.129 130.477 328.129 129.633C328.129 129.562 328.117 129.41 328.094 129.176C328.094 128.941 328.094 128.789 328.094 128.719C328 128.602 327.848 128.543 327.637 128.543C327.449 128.543 327.273 128.543 327.109 128.543C326.617 128.543 326.148 128.719 325.703 129.07C325.258 129.422 324.848 129.867 324.473 130.406C324.098 130.945 323.758 131.555 323.453 132.234C323.172 132.891 322.926 133.559 322.715 134.238C322.504 134.895 322.328 135.516 322.188 136.102C322.07 136.664 322 137.133 321.977 137.508L321.59 137.859H320.395C320.184 137.859 320.066 137.754 320.043 137.543C320.043 137.309 320.043 137.133 320.043 137.016C320.043 136.453 320.078 135.891 320.148 135.328C320.242 134.742 320.336 134.168 320.43 133.605C320.547 133.02 320.652 132.434 320.746 131.848C320.84 131.262 320.898 130.688 320.922 130.125C320.898 129.938 320.875 129.738 320.852 129.527C320.828 129.293 320.781 129.082 320.711 128.895C320.641 128.707 320.535 128.555 320.395 128.438C320.254 128.297 320.055 128.227 319.797 128.227C319.422 128.227 319.059 128.297 318.707 128.438C318.355 128.578 318.027 128.766 317.723 129C317.441 129.211 317.184 129.48 316.949 129.809C316.738 130.113 316.586 130.453 316.492 130.828L314.383 137.648L314.066 138C314.066 138 313.996 138 313.855 138C313.715 138.023 313.609 138.035 313.539 138.035C313.281 138.035 313.012 138.012 312.73 137.965C312.473 137.895 312.344 137.672 312.344 137.297V137.156ZM336.391 132.516C336.438 132.375 336.508 132.129 336.602 131.777C336.719 131.402 336.824 131.004 336.918 130.582C337.035 130.16 337.129 129.762 337.199 129.387C337.293 128.988 337.363 128.719 337.41 128.578C337.551 128.016 337.715 127.406 337.902 126.75C338.113 126.094 338.395 125.484 338.746 124.922C339.098 124.359 339.543 123.902 340.082 123.551C340.645 123.176 341.336 122.988 342.156 122.988C342.461 122.988 342.672 123.105 342.789 123.34C342.93 123.551 343.047 123.785 343.141 124.043C343.141 124.137 343.141 124.312 343.141 124.57C343.164 124.805 343.176 124.969 343.176 125.062C343.176 126.07 343.07 126.961 342.859 127.734C342.672 128.508 342.367 129.223 341.945 129.879C341.547 130.535 341.055 131.156 340.469 131.742C339.883 132.305 339.215 132.902 338.465 133.535C338.441 133.605 338.406 133.723 338.359 133.887C338.312 134.051 338.289 134.168 338.289 134.238V134.309C338.289 134.73 338.359 135.07 338.5 135.328C338.641 135.586 338.828 135.797 339.062 135.961C339.32 136.102 339.602 136.195 339.906 136.242C340.234 136.266 340.586 136.277 340.961 136.277C342.062 136.277 343.117 136.125 344.125 135.82C345.133 135.516 346.059 135.023 346.902 134.344C347.02 134.227 347.16 134.062 347.324 133.852C347.512 133.617 347.699 133.383 347.887 133.148C348.074 132.914 348.273 132.715 348.484 132.551C348.695 132.363 348.918 132.27 349.152 132.27C349.387 132.27 349.527 132.363 349.574 132.551C349.621 132.738 349.645 132.926 349.645 133.113C349.645 133.629 349.48 134.121 349.152 134.59C348.848 135.035 348.438 135.445 347.922 135.82C347.43 136.172 346.855 136.488 346.199 136.77C345.566 137.051 344.934 137.285 344.301 137.473C343.668 137.66 343.059 137.801 342.473 137.895C341.91 137.988 341.43 138.035 341.031 138.035C339.789 138.035 338.746 137.836 337.902 137.438C337.082 137.016 336.52 136.184 336.215 134.941L336.391 132.516ZM341.418 125.59C340.949 126.012 340.574 126.398 340.293 126.75C340.035 127.078 339.824 127.43 339.66 127.805C339.52 128.156 339.391 128.543 339.273 128.965C339.18 129.387 339.074 129.879 338.957 130.441C339.402 130.09 339.766 129.738 340.047 129.387C340.352 129.035 340.598 128.672 340.785 128.297C340.973 127.922 341.113 127.523 341.207 127.102C341.301 126.656 341.371 126.152 341.418 125.59ZM349.926 128.578C349.973 128.484 350.066 128.344 350.207 128.156C350.348 127.945 350.418 127.77 350.418 127.629V127.523C350.418 127.5 350.395 127.477 350.348 127.453C350.301 127.406 350.266 127.383 350.242 127.383H349.609C349 127.57 348.32 127.699 347.57 127.77C346.797 127.84 346.059 127.863 345.355 127.84C344.629 127.816 344.008 127.758 343.492 127.664C342.977 127.547 342.672 127.418 342.578 127.277C342.484 127.137 342.66 126.973 343.105 126.785C343.551 126.574 344.395 126.363 345.637 126.152C345.707 126.152 345.871 126.129 346.129 126.082C346.363 126.012 346.633 125.953 346.938 125.906C347.219 125.859 347.488 125.812 347.746 125.766C348.004 125.695 348.168 125.66 348.238 125.66C348.332 125.637 348.531 125.625 348.836 125.625C349.141 125.602 349.445 125.578 349.75 125.555C350.078 125.531 350.383 125.52 350.664 125.52C350.969 125.52 351.18 125.52 351.297 125.52L351.473 125.309L354.215 120.703C354.309 120.539 354.473 120.41 354.707 120.316C354.965 120.223 355.164 120.176 355.305 120.176C355.609 120.176 355.82 120.305 355.938 120.562C356.055 120.797 356.113 121.031 356.113 121.266C356.113 121.289 356.102 121.312 356.078 121.336C356.078 121.359 356.078 121.383 356.078 121.406V121.547L354.531 125.309V125.52C354.578 125.379 354.66 125.309 354.777 125.309C354.918 125.309 355.023 125.309 355.094 125.309C355.445 125.309 355.785 125.426 356.113 125.66C356.441 125.895 356.605 126.211 356.605 126.609C356.605 126.797 356.547 126.949 356.43 127.066C356.312 127.184 356.172 127.277 356.008 127.348C355.844 127.418 355.668 127.477 355.48 127.523C355.293 127.547 355.129 127.559 354.988 127.559C354.707 127.559 354.438 127.523 354.18 127.453C353.945 127.383 353.688 127.348 353.406 127.348C353.148 127.348 352.914 127.488 352.703 127.77C352.492 128.027 352.293 128.379 352.105 128.824C351.941 129.246 351.801 129.727 351.684 130.266C351.566 130.805 351.461 131.332 351.367 131.848C351.273 132.363 351.203 132.844 351.156 133.289C351.133 133.734 351.121 134.074 351.121 134.309C351.121 134.402 351.121 134.59 351.121 134.871C351.145 135.152 351.156 135.34 351.156 135.434C351.18 135.574 351.238 135.703 351.332 135.82C351.426 135.914 351.52 136.02 351.613 136.137H352.422C353.359 136.137 354.285 135.926 355.199 135.504C356.137 135.082 357.016 134.602 357.836 134.062C357.883 134.039 357.988 133.934 358.152 133.746C358.34 133.535 358.539 133.336 358.75 133.148C358.961 132.938 359.148 132.75 359.312 132.586C359.5 132.422 359.629 132.34 359.699 132.34C359.863 132.34 360.016 132.422 360.156 132.586C360.297 132.75 360.367 132.926 360.367 133.113C360.367 133.559 360.203 133.992 359.875 134.414C359.57 134.836 359.172 135.234 358.68 135.609C358.188 135.961 357.625 136.289 356.992 136.594C356.359 136.898 355.727 137.156 355.094 137.367C354.484 137.578 353.898 137.742 353.336 137.859C352.797 137.977 352.352 138.035 352 138.035C351.672 138.035 351.332 138 350.98 137.93C350.629 137.836 350.312 137.695 350.031 137.508C349.75 137.32 349.516 137.086 349.328 136.805C349.141 136.523 349.047 136.172 349.047 135.75V131.848L349.926 128.578ZM359.523 130.617C359.547 130.5 359.617 130.289 359.734 129.984C359.852 129.68 359.969 129.352 360.086 129C360.227 128.648 360.355 128.32 360.473 128.016C360.59 127.711 360.672 127.5 360.719 127.383C360.859 127.008 360.988 126.762 361.105 126.645C361.246 126.527 361.492 126.469 361.844 126.469C362.219 126.469 362.465 126.598 362.582 126.855C362.699 127.113 362.758 127.418 362.758 127.77C362.758 128.379 362.664 128.941 362.477 129.457C362.312 129.949 362.125 130.453 361.914 130.969C361.703 131.461 361.504 132 361.316 132.586C361.152 133.148 361.07 133.805 361.07 134.555C361.07 134.648 361.07 134.789 361.07 134.977C361.07 135.141 361.082 135.316 361.105 135.504C361.129 135.668 361.176 135.82 361.246 135.961C361.316 136.078 361.41 136.137 361.527 136.137C362.137 136.137 362.746 136.02 363.355 135.785C363.988 135.527 364.598 135.234 365.184 134.906C365.793 134.555 366.367 134.18 366.906 133.781C367.469 133.359 367.973 132.996 368.418 132.691C368.582 132.574 368.699 132.457 368.77 132.34C368.863 132.223 368.945 132.117 369.016 132.023C369.086 131.906 369.168 131.812 369.262 131.742C369.379 131.648 369.555 131.602 369.789 131.602C370.094 131.602 370.34 131.672 370.527 131.812C370.738 131.93 370.844 132.152 370.844 132.48C370.844 132.621 370.832 132.75 370.809 132.867C370.809 132.984 370.75 133.09 370.633 133.184C370.609 133.254 370.516 133.348 370.352 133.465C370.211 133.582 370.059 133.711 369.895 133.852C369.73 133.969 369.578 134.086 369.438 134.203C369.297 134.297 369.191 134.355 369.121 134.379C369.098 134.379 369.027 134.414 368.91 134.484C368.816 134.531 368.758 134.555 368.734 134.555C368.711 134.578 368.676 134.613 368.629 134.66C368.605 134.684 368.594 134.707 368.594 134.73C368.102 135.105 367.562 135.492 366.977 135.891C366.414 136.266 365.816 136.617 365.184 136.945C364.551 137.25 363.895 137.508 363.215 137.719C362.559 137.93 361.902 138.035 361.246 138.035C360.684 138.035 360.25 137.895 359.945 137.613C359.664 137.309 359.453 136.934 359.312 136.488C359.172 136.043 359.09 135.574 359.066 135.082C359.043 134.59 359.031 134.145 359.031 133.746L359.523 130.617ZM361.211 121.371C361.211 120.949 361.293 120.668 361.457 120.527C361.621 120.387 361.914 120.316 362.336 120.316C362.547 120.316 362.758 120.363 362.969 120.457C363.18 120.527 363.285 120.715 363.285 121.02C363.285 121.324 363.133 121.605 362.828 121.863C362.547 122.121 362.266 122.25 361.984 122.25C361.703 122.25 361.504 122.168 361.387 122.004C361.27 121.816 361.211 121.605 361.211 121.371ZM372.004 133.184C372.121 131.988 372.391 130.852 372.812 129.773C373.258 128.695 373.762 127.77 374.324 126.996C374.91 126.223 375.496 125.625 376.082 125.203C376.691 124.781 377.219 124.652 377.664 124.816C377.781 124.746 377.875 124.688 377.945 124.641C378.039 124.57 378.109 124.512 378.156 124.465C378.227 124.395 378.297 124.348 378.367 124.324C378.461 124.277 378.59 124.254 378.754 124.254C379.082 124.254 379.375 124.359 379.633 124.57C379.891 124.781 380.113 125.039 380.301 125.344C380.512 125.648 380.664 125.977 380.758 126.328C380.875 126.656 380.934 126.961 380.934 127.242C380.934 127.547 380.816 127.758 380.582 127.875C380.348 127.992 380.078 128.051 379.773 128.051C379.586 128.051 379.422 128.016 379.281 127.945C379.141 127.852 379.012 127.746 378.895 127.629C378.801 127.512 378.695 127.395 378.578 127.277C378.461 127.16 378.309 127.078 378.121 127.031H378.086H377.98C377.957 127.055 377.898 127.113 377.805 127.207C377.734 127.277 377.688 127.336 377.664 127.383C377.172 127.969 376.715 128.496 376.293 128.965C375.871 129.41 375.496 129.867 375.168 130.336C374.863 130.805 374.617 131.309 374.43 131.848C374.266 132.387 374.184 133.031 374.184 133.781C374.184 133.852 374.184 133.957 374.184 134.098C374.184 134.238 374.184 134.379 374.184 134.52C374.207 134.66 374.219 134.801 374.219 134.941C374.219 135.082 374.219 135.188 374.219 135.258C374.266 135.492 374.395 135.668 374.605 135.785C374.84 135.902 375.051 136.02 375.238 136.137C375.309 136.137 375.484 136.148 375.766 136.172C376.047 136.172 376.211 136.172 376.258 136.172C377.102 136.172 378.098 136.043 379.246 135.785C380.395 135.504 381.543 135.141 382.691 134.695C383.863 134.25 384.965 133.723 385.996 133.113C387.027 132.48 387.848 131.824 388.457 131.145C388.598 130.957 388.715 130.699 388.809 130.371C388.926 130.043 389.043 129.727 389.16 129.422C389.301 129.094 389.453 128.812 389.617 128.578C389.781 128.344 390.027 128.227 390.355 128.227C390.66 128.227 390.848 128.355 390.918 128.613C391.012 128.848 391.059 129.082 391.059 129.316C391.059 130.066 390.871 130.746 390.496 131.355C390.145 131.965 389.699 132.516 389.16 133.008C388.621 133.5 388.023 133.934 387.367 134.309C386.734 134.684 386.125 135 385.539 135.258C385.375 135.305 385.012 135.434 384.449 135.645C383.91 135.855 383.324 136.078 382.691 136.312C382.059 136.547 381.438 136.781 380.828 137.016C380.242 137.227 379.809 137.391 379.527 137.508C379.152 137.625 378.836 137.719 378.578 137.789C378.32 137.836 378.086 137.883 377.875 137.93C377.664 137.977 377.441 138 377.207 138C376.996 138.023 376.738 138.035 376.434 138.035C375.59 138.035 374.887 137.93 374.324 137.719C373.785 137.508 373.352 137.203 373.023 136.805C372.695 136.383 372.449 135.879 372.285 135.293C372.145 134.684 372.051 133.98 372.004 133.184ZM391.656 133.043C391.469 133.137 391.27 133.195 391.059 133.219C390.848 133.219 390.637 133.219 390.426 133.219C390.215 133.219 390.004 133.23 389.793 133.254C389.582 133.254 389.371 133.301 389.16 133.395C388.762 133.441 388.504 133.418 388.387 133.324C388.27 133.207 388.234 133.055 388.281 132.867C388.328 132.68 388.457 132.469 388.668 132.234C388.879 132 389.125 131.801 389.406 131.637C389.664 131.473 389.945 131.355 390.25 131.285C390.578 131.215 390.871 131.227 391.129 131.32C391.012 130.898 391.023 130.535 391.164 130.23C391.305 129.926 391.586 129.773 392.008 129.773C392.219 129.773 392.406 129.797 392.57 129.844C392.758 129.867 392.898 129.961 392.992 130.125C393.344 129.914 393.812 129.562 394.398 129.07C394.984 128.555 395.582 128.039 396.191 127.523C396.824 126.984 397.398 126.516 397.914 126.117C398.43 125.695 398.781 125.484 398.969 125.484C399.039 125.484 399.133 125.496 399.25 125.52C399.367 125.52 399.484 125.543 399.602 125.59C399.742 125.637 399.848 125.695 399.918 125.766C400.012 125.812 400.059 125.895 400.059 126.012V127.523C399.895 128.18 399.73 128.801 399.566 129.387C399.426 129.949 399.297 130.512 399.18 131.074C399.086 131.613 399.016 132.164 398.969 132.727C398.922 133.289 398.898 133.887 398.898 134.52C399.273 134.52 399.719 134.438 400.234 134.273C400.773 134.109 401.312 133.91 401.852 133.676C402.391 133.441 402.895 133.207 403.363 132.973C403.832 132.715 404.207 132.504 404.488 132.34C404.535 132.316 404.641 132.234 404.805 132.094C404.969 131.953 405.145 131.812 405.332 131.672C405.52 131.508 405.695 131.367 405.859 131.25C406.047 131.109 406.164 131.016 406.211 130.969C406.258 130.922 406.375 130.863 406.562 130.793C406.75 130.699 406.855 130.641 406.879 130.617C406.973 130.594 407.055 130.629 407.125 130.723C407.219 130.793 407.301 130.887 407.371 131.004C407.441 131.098 407.488 131.203 407.512 131.32C407.559 131.414 407.582 131.473 407.582 131.496C407.582 131.73 407.488 131.965 407.301 132.199C407.113 132.434 406.891 132.656 406.633 132.867C406.375 133.055 406.105 133.242 405.824 133.43C405.566 133.594 405.367 133.746 405.227 133.887C405.039 133.98 404.711 134.133 404.242 134.344C403.797 134.555 403.316 134.777 402.801 135.012C402.285 135.246 401.793 135.469 401.324 135.68C400.879 135.891 400.562 136.043 400.375 136.137C400.328 136.16 400.223 136.195 400.059 136.242C399.895 136.266 399.719 136.312 399.531 136.383C399.344 136.453 399.156 136.512 398.969 136.559C398.805 136.582 398.699 136.605 398.652 136.629C398.441 136.699 398.277 136.816 398.16 136.98C398.066 137.145 397.961 137.309 397.844 137.473C397.75 137.637 397.621 137.777 397.457 137.895C397.316 138.012 397.082 138.047 396.754 138C396.73 137.977 396.625 137.93 396.438 137.859C396.273 137.766 396.168 137.695 396.121 137.648C395.559 137.25 395.078 136.875 394.68 136.523C394.281 136.172 393.918 135.832 393.59 135.504C393.262 135.152 392.945 134.777 392.641 134.379C392.359 133.98 392.031 133.535 391.656 133.043ZM393.871 131.637C394.035 131.988 394.188 132.328 394.328 132.656C394.492 132.984 394.68 133.301 394.891 133.605C395.102 133.887 395.336 134.133 395.594 134.344C395.875 134.555 396.215 134.684 396.613 134.73C396.66 134.379 396.719 133.957 396.789 133.465C396.859 132.973 396.941 132.457 397.035 131.918C397.129 131.379 397.234 130.852 397.352 130.336C397.492 129.797 397.645 129.328 397.809 128.93H397.457C397.082 129.188 396.73 129.445 396.402 129.703C396.098 129.938 395.793 130.172 395.488 130.406C395.184 130.617 394.938 130.805 394.75 130.969C394.727 130.992 394.691 131.027 394.645 131.074C394.598 131.121 394.562 131.145 394.539 131.145C394.516 131.191 394.41 131.273 394.223 131.391C394.035 131.508 393.918 131.59 393.871 131.637ZM397.809 128.402C397.738 128.402 397.703 128.461 397.703 128.578C397.703 128.672 397.738 128.719 397.809 128.719C397.902 128.719 397.949 128.672 397.949 128.578C397.949 128.461 397.902 128.402 397.809 128.402Z" fill="#1F1D2A"/>
<defs>
<linearGradient id="paint0_linear_153_153" x1="22.3267" y1="4.21664e-06" x2="373.903" y2="170.287" gradientUnits="userSpaceOnUse">
<stop stop-color="#AB4B70"/>
<stop offset="0.17" stop-color="#BE8092"/>
<stop offset="0.315" stop-color="#94638F"/>
<stop offset="0.435" stop-color="#8B4E8A"/>
<stop offset="0.575" stop-color="#60448A"/>
<stop offset="0.715" stop-color="#483E85"/>
<stop offset="0.85" stop-color="#2E356B"/>
<stop offset="0.984375" stop-color="#2B2F52"/>
</linearGradient>
</defs>
</svg>
